<?xml version="1.0" encoding="utf-8"?>
<!-- Generator: Adobe Illustrator 23.1.0, SVG Export Plug-In . SVG Version: 6.00 Build 0)  -->
<svg version="1.1" id="Layer_1" xmlns="http://www.w3.org/2000/svg" xmlns:xlink="http://www.w3.org/1999/xlink" x="0px" y="0px"
	 viewBox="0 0 1417.3 1417.3" style="enable-background:new 0 0 1417.3 1417.3;" xml:space="preserve">
<style type="text/css">
	.st0{fill:none;stroke:#FFFFFF;stroke-width:15;stroke-miterlimit:10;}
	.st1{fill:none;stroke:#FFFFFF;stroke-width:5;stroke-miterlimit:10;}
</style>
<title>logo shape 2</title>
<path class="st0" d="M1318.8,683.7c-0.7-17.8-2.2-35.5-4.4-53c-2.2-17.5-5.2-34.9-9-52.2c-3.7-17.2-8.2-34.2-13.5-51.1
	c-5.2-16.7-11.1-33.2-17.8-49.5c-0.9-2.3-1.9-4.6-2.9-6.9c-5.9-13.9-12.2-27.4-19-40.7c-8-15.5-16.6-30.7-25.8-45.5
	s-19.1-29.1-29.5-42.9c-10.4-13.8-21.4-27.2-33-40.1c-7.6-8.5-15.4-16.7-23.5-24.8c-4.2-4.2-8.4-8.3-12.7-12.3
	c-12.6-11.9-25.6-23.2-39-33.9c-13.4-10.7-27.3-20.8-41.6-30.4c-14.3-9.5-28.9-18.4-44-26.7s-30.4-15.9-46-22.9
	c-3.6-1.6-7.2-3.2-10.8-4.7c-12.2-5.1-24.4-9.9-36.8-14.2c-16.2-5.6-32.5-10.6-49-14.8c-16.5-4.2-33.2-7.8-50.1-10.6
	c-16.8-2.8-33.7-4.9-50.7-6.3c-16.9-1.4-33.9-2.1-51-2.1c-17.1,0-34.2,0.7-51.1,2.1c-17.1,1.4-34,3.5-50.7,6.3
	c-16.8,2.8-33.5,6.3-50.1,10.6c-16.5,4.2-32.9,9.2-49,14.8c-12.4,4.3-24.7,9.1-36.8,14.2c-3.6,1.5-7.2,3.1-10.8,4.7
	c-15.7,7-31,14.6-46,22.9s-29.6,17.2-44,26.7c-14.3,9.5-28.2,19.7-41.6,30.4s-26.5,22-39,33.9c-4.3,4-8.5,8.1-12.6,12.3
	c-8.1,8.1-15.9,16.4-23.5,24.9c-11.6,13-22.6,26.3-33,40.1c-10.4,13.8-20.2,28.1-29.5,42.9c-9.2,14.8-17.9,29.9-25.9,45.5
	c-6.8,13.3-13.2,26.9-19,40.7c-1,2.3-1.9,4.6-2.9,6.9c-6.7,16.3-12.6,32.8-17.8,49.5c-5.2,16.8-9.7,33.9-13.5,51.1s-6.7,34.6-9,52.2
	c-2.2,17.5-3.7,35.2-4.4,53c-0.3,8.3-0.5,16.6-0.5,24.9c0,9.5,0.2,19,0.7,28.4c0.8,17.9,2.4,35.7,4.8,53.3
	c2.4,17.8,5.5,35.4,9.5,52.9s8.7,34.8,14.2,52c5.5,17.1,11.8,34,18.8,50.7l0.1,0.2c7,16.7,14.8,32.9,23.2,48.8
	c8.5,16.1,17.8,31.7,27.7,46.9s20.6,30,31.9,44.3c11.3,14.3,23.2,28.1,35.8,41.4c4,4.3,8.1,8.5,12.3,12.7
	c8.8,8.8,17.9,17.4,27.1,25.6c13.8,12.2,28,23.7,42.8,34.6c14.7,10.9,30,21.1,45.8,30.7c15.7,9.5,31.9,18.3,48.5,26.4
	c9.8,4.8,19.8,9.3,29.9,13.6c6.9,2.9,13.8,5.7,20.8,8.3c17.3,6.6,34.9,12.3,52.6,17.3c17.7,5,35.7,9.1,54,12.4
	c18.1,3.3,36.5,5.8,54.9,7.4c18.3,1.6,36.8,2.5,55.4,2.5c18.6,0,37.1-0.8,55.4-2.5c18.5-1.6,36.8-4.1,54.9-7.4
	c18.1-3.3,36.1-7.4,54-12.4c17.7-5,35.3-10.7,52.6-17.3c7-2.7,13.9-5.5,20.8-8.3c10.1-4.3,20.1-8.8,29.9-13.6
	c16.6-8.1,32.8-16.9,48.5-26.4c15.7-9.5,31-19.8,45.8-30.7c14.7-10.8,29-22.4,42.8-34.6c9.3-8.2,18.3-16.7,27.1-25.6
	c4.2-4.2,8.3-8.4,12.3-12.7c12.6-13.3,24.5-27.1,35.8-41.4c11.3-14.3,21.9-29.1,31.9-44.3c9.9-15.2,19.1-30.8,27.7-46.9
	c8.4-15.9,16.2-32.1,23.2-48.8c0-0.1,0.1-0.2,0.1-0.2c7.1-16.7,13.3-33.6,18.8-50.7c5.5-17.2,10.2-34.5,14.2-52
	c3.9-17.5,7.1-35.1,9.5-52.9c2.3-17.6,3.9-35.4,4.8-53.3c0.4-9.4,0.6-18.9,0.7-28.4C1319.3,700.3,1319.1,692,1318.8,683.7z
	 M1264.6,781.7c-2.1,16.4-5,32.7-8.6,48.6c-3.6,16.2-7.9,32.2-12.9,47.9c-5.1,15.9-10.8,31.4-17.2,46.7
	c-6.5,15.4-13.6,30.4-21.4,45.1s-16.2,29-25.4,43.2c-9.1,14.1-18.9,27.7-29.2,40.9c-10.3,13.2-21.3,25.9-32.8,38.2
	c-11.5,12.3-23.6,24-36.2,35.2c-12.6,11.2-25.7,21.8-39.3,31.9c-13.6,10.1-27.6,19.5-42.1,28.3s-29.3,17-44.6,24.5
	c-15.2,7.5-30.7,14.2-46.7,20.3c-15.8,6-31.9,11.4-48.4,16c-16.3,4.6-32.8,8.4-49.7,11.5c-16.6,3.1-33.5,5.4-50.6,6.9
	c-16.8,1.5-33.8,2.3-51,2.3c-17.2,0-34.2-0.8-51-2.3c-17.1-1.6-34-3.9-50.6-6.9c-16.9-3.1-33.4-6.9-49.7-11.5
	c-16.5-4.6-32.6-9.9-48.4-16c-15.8-6.1-31.4-12.8-46.7-20.3c-15.3-7.5-30.1-15.6-44.6-24.5s-28.5-18.3-42.1-28.3
	c-13.6-10-26.7-20.7-39.3-31.9c-12.6-11.2-24.7-23-36.2-35.2c-11.5-12.2-22.4-25-32.8-38.2c-10.4-13.2-20.1-26.8-29.2-40.9
	c-9.1-14-17.5-28.4-25.4-43.2c-7.8-14.7-14.9-29.7-21.4-45.1c-6.4-15.2-12.1-30.8-17.2-46.7c-5-15.7-9.3-31.6-12.9-47.9
	c-3.6-16-6.4-32.2-8.6-48.6c-2.1-16.1-3.5-32.5-4.2-49c-0.3-8-0.5-16-0.5-24.1c0-8.3,0.2-16.7,0.6-24.9c0.7-16.4,2.1-32.6,4.3-48.6
	c2.1-16.2,4.9-32.2,8.4-47.9c3.5-15.9,7.7-31.5,12.5-46.8s10.3-30.4,16.5-45.4c6.1-14.9,12.9-29.4,20.3-43.6
	c7.4-14.2,15.3-28,23.8-41.5c8.5-13.5,17.6-26.6,27.2-39.2c9.6-12.7,19.7-24.9,30.2-36.7c10.6-11.8,21.6-23.1,33.2-33.9
	c11.5-10.8,23.5-21.1,35.8-30.9c12.3-9.8,25-19,38.1-27.7c13.1-8.7,26.5-16.8,40.2-24.4c13.7-7.5,27.7-14.5,42.1-20.9
	c14.2-6.4,28.8-12.1,43.6-17.3c14.7-5.1,29.6-9.6,44.8-13.5c15-3.8,30.3-7.1,45.8-9.7c15.3-2.6,30.7-4.5,46.4-5.8
	c15.4-1.3,31-1.9,46.7-1.9c15.7,0,31.3,0.7,46.7,2c15.7,1.3,31.1,3.2,46.4,5.8c15.5,2.6,30.7,5.8,45.8,9.7
	c15.2,3.9,30.2,8.4,44.8,13.5c14.8,5.2,29.4,10.9,43.6,17.3c14.4,6.4,28.4,13.3,42.1,20.9c13.7,7.6,27.1,15.7,40.2,24.4
	c13.1,8.7,25.8,17.9,38.1,27.7c12.3,9.8,24.2,20.1,35.8,30.9c11.5,10.8,22.6,22.1,33.2,33.9s20.7,24,30.3,36.7
	c9.6,12.7,18.7,25.7,27.2,39.2c8.5,13.5,16.5,27.3,23.8,41.5c7.4,14.2,14.1,28.7,20.3,43.6c6.1,14.9,11.6,30,16.5,45.4
	c4.8,15.3,9,30.9,12.5,46.8c3.5,15.7,6.3,31.7,8.4,47.9c2.1,16,3.5,32.2,4.3,48.6c0.4,8.3,0.6,16.6,0.6,24.9
	c0,8.1-0.2,16.1-0.5,24.1C1268.1,749.3,1266.7,765.6,1264.6,781.7L1264.6,781.7z"/>
<line class="st0" x1="708.7" y1="148" x2="708.7" y2="98"/>
<line class="st0" x1="708.7" y1="1319.3" x2="708.7" y2="1269.3"/>
<line class="st0" x1="1318.8" y1="683.7" x2="1268.7" y2="683.7"/>
<line class="st0" x1="148.6" y1="683.7" x2="98.5" y2="683.7"/>
<line class="st1" x1="662" y1="150" x2="657.6" y2="100.1"/>
<polyline class="st1" points="764,1316.9 764,1316.8 759.7,1267 "/>
<line class="st1" x1="1314.4" y1="630.7" x2="1264.5" y2="635.1"/>
<line class="st1" x1="148.5" y1="732.7" x2="98.7" y2="737.1"/>
<line class="st1" x1="615.6" y1="155.8" x2="606.9" y2="106.4"/>
<polyline class="st1" points="819,1309.6 819,1309.4 810.3,1260.1 "/>
<line class="st1" x1="1305.4" y1="578.5" x2="1256" y2="587.2"/>
<line class="st1" x1="152.8" y1="781.7" x2="103.4" y2="790.4"/>
<line class="st1" x1="569.8" y1="165.4" x2="556.8" y2="117"/>
<polyline class="st1" points="873.2,1297.6 873,1297 860,1248.5 "/>
<line class="st1" x1="1292" y1="527.4" x2="1243.5" y2="540.4"/>
<line class="st1" x1="161.3" y1="830.4" x2="112.9" y2="843.4"/>
<line class="st1" x1="524.9" y1="179" x2="507.8" y2="131.8"/>
<line class="st1" x1="925.5" y1="1279.7" x2="908.4" y2="1232.5"/>
<line class="st1" x1="1274.2" y1="477.9" x2="1227" y2="495.1"/>
<line class="st1" x1="174.2" y1="878.2" x2="127.1" y2="895.4"/>
<line class="st1" x1="481.3" y1="196.2" x2="460.1" y2="150.8"/>
<line class="st1" x1="976.3" y1="1257.7" x2="955.1" y2="1212.2"/>
<line class="st1" x1="1252.3" y1="430.2" x2="1206.7" y2="451.5"/>
<line class="st1" x1="191.4" y1="924.9" x2="145.9" y2="946.1"/>
<line class="st1" x1="439.3" y1="217.1" x2="414.1" y2="173.6"/>
<line class="st1" x1="1024.8" y1="1231.3" x2="999.6" y2="1187.7"/>
<line class="st1" x1="1226.5" y1="384.8" x2="1182.9" y2="409.9"/>
<line class="st1" x1="212.8" y1="970" x2="169.3" y2="995.2"/>
<line class="st1" x1="399" y1="241.5" x2="370.2" y2="200.3"/>
<line class="st1" x1="1070.6" y1="1200.6" x2="1041.7" y2="1159.4"/>
<line class="st1" x1="1196.9" y1="341.8" x2="1155.7" y2="370.7"/>
<line class="st1" x1="238.1" y1="1013.2" x2="196.9" y2="1042"/>
<line class="st1" x1="360.9" y1="269.3" x2="328.5" y2="230.7"/>
<line class="st1" x1="1113.3" y1="1166" x2="1081" y2="1127.4"/>
<line class="st1" x1="1163.9" y1="301.7" x2="1125.4" y2="334"/>
<line class="st1" x1="267.3" y1="1054" x2="228.8" y2="1086.4"/>
<line class="st1" x1="325.1" y1="300.2" x2="289.5" y2="264.6"/>
<line class="st1" x1="1152.7" y1="1127.8" x2="1117.2" y2="1092.2"/>
<line class="st1" x1="1127.8" y1="264.6" x2="1092.2" y2="300.2"/>
<line class="st1" x1="300.1" y1="1092.2" x2="264.6" y2="1127.8"/>
<line class="st1" x1="291.9" y1="334" x2="253.4" y2="301.7"/>
<line class="st1" x1="1188.5" y1="1086.4" x2="1150" y2="1054"/>
<line class="st1" x1="1088.8" y1="230.7" x2="1056.4" y2="269.3"/>
<line class="st1" x1="336.3" y1="1127.4" x2="304" y2="1166"/>
<line class="st1" x1="261.6" y1="370.7" x2="220.4" y2="341.9"/>
<line class="st1" x1="1220.4" y1="1042.1" x2="1179.2" y2="1013.2"/>
<line class="st1" x1="1047.2" y1="200.3" x2="1018.3" y2="241.5"/>
<line class="st1" x1="375.6" y1="1159.4" x2="346.8" y2="1200.6"/>
<line class="st1" x1="234.4" y1="409.9" x2="190.9" y2="384.8"/>
<line class="st1" x1="1248.1" y1="995.2" x2="1204.6" y2="970"/>
<line class="st1" x1="1003.2" y1="173.6" x2="978" y2="217.1"/>
<polyline class="st1" points="390.9,1234.1 392.5,1231.3 417.7,1187.7 "/>
<line class="st1" x1="210.6" y1="451.5" x2="165" y2="430.2"/>
<line class="st1" x1="1271.4" y1="946.1" x2="1225.9" y2="924.9"/>
<line class="st1" x1="957.2" y1="150.8" x2="936" y2="196.2"/>
<polyline class="st1" points="440.1,1259.8 441,1257.7 462.3,1212.2 "/>
<line class="st1" x1="111.6" y1="466.4" x2="111.4" y2="466.4"/>
<line class="st1" x1="190.3" y1="495.1" x2="143.1" y2="477.9"/>
<line class="st1" x1="1290.2" y1="895.4" x2="1243.1" y2="878.2"/>
<line class="st1" x1="909.5" y1="131.8" x2="892.4" y2="178.9"/>
<polyline class="st1" points="491.3,1281 491.8,1279.7 508.9,1232.5 "/>
<line class="st1" x1="173.8" y1="540.4" x2="125.4" y2="527.4"/>
<line class="st1" x1="1304.4" y1="843.4" x2="1256" y2="830.4"/>
<line class="st1" x1="860.5" y1="117" x2="847.5" y2="165.4"/>
<polyline class="st1" points="544.2,1297.6 544.3,1296.9 557.3,1248.5 "/>
<line class="st1" x1="161.3" y1="587.2" x2="111.9" y2="578.5"/>
<line class="st1" x1="1313.9" y1="790.4" x2="1264.6" y2="781.7"/>
<line class="st1" x1="810.4" y1="106.4" x2="801.8" y2="155.8"/>
<polyline class="st1" points="598.3,1309.6 598.3,1309.4 607,1260.1 "/>
<line class="st1" x1="152.8" y1="635.1" x2="102.9" y2="630.7"/>
<line class="st1" x1="1318.6" y1="737.1" x2="1268.8" y2="732.7"/>
<line class="st1" x1="759.7" y1="100.1" x2="755.3" y2="150"/>
<polyline class="st1" points="653.3,1316.9 653.3,1316.8 657.6,1267 "/>
</svg>
