<svg id="Layer_1" data-name="Layer 1" xmlns="http://www.w3.org/2000/svg" viewBox="0 0 1417.32 1417.32"><defs><style>.cls-1{fill:#e30613;}</style></defs><title>logo shape</title><path class="cls-1" d="M1408.17,712.91q0,13.44-.51,26.81c-6.59,176.79-78.56,342-204.35,467.84-99,99-222.35,164.62-356.56,191.32v-54.94c281.59-61.54,495.06-307.38,507.23-604.22q.57-13.35.56-26.81t-.56-26.82a641.88,641.88,0,0,0-48.3-219.66q-10.65-25.67-23.39-50.19t-27.49-47.83q-14.71-23.27-31.34-45.15t-34.92-42.21q-18.26-20.3-38.2-39t-41.23-35.57q-21.27-16.86-43.94-31.92t-46.34-28.07q-23.64-13-48.44-24.05-24.58-10.93-50.22-19.85-25.35-8.82-51.64-15.53h0q-25.95-6.64-52.7-11.13Q804.7,74,793.45,72.57q-15.41-2-31-3.32-11.25-.94-22.6-1.48Q724.33,67,708.66,67c-3.14,0-6.25,0-9.39.08q-22.38.3-44.37,2.17c-3.1.25-6.18.54-9.26.84q-22.3,2.16-44.15,5.83-26.75,4.49-52.71,11.13-26.25,6.71-51.63,15.54-25.61,8.9-50.21,19.85-24.79,11-48.45,24t-46.35,28.07q-22.65,15-43.94,31.91T267,242.06q-19.92,18.68-38.2,39t-34.93,42.2q-16.6,21.88-31.34,45.17T135,416.24q-12.75,24.51-23.39,50.19A641.7,641.7,0,0,0,63.33,686.09q-.55,13.36-.56,26.82t.56,26.81c12.47,304.35,236.54,555,528.68,608.51v54.6c-142.49-23.79-273.77-91.07-378-195.27C88.22,1081.77,16.25,916.51,9.65,739.72q-.53-13.35-.51-26.81t.51-26.82c6.6-176.78,78.57-342,204.36-467.81C331.19,101.1,482.58,30.64,645.64,16.18q26.63-2.37,53.63-2.73c3.11,0,6.25-.06,9.39-.06q15.65,0,31.16.7,27,1.13,53.63,4.37C948.19,37,1091.36,106.33,1203.31,218.28c125.79,125.79,197.76,291,204.35,467.81Q1408.19,699.46,1408.17,712.91Z"/></svg>